<?xml version="1.0" encoding="UTF-8" standalone="no"?><!DOCTYPE svg PUBLIC "-//W3C//DTD SVG 1.1//EN" "http://www.w3.org/Graphics/SVG/1.1/DTD/svg11.dtd"><svg width="100%" height="100%" viewBox="0 0 32 32" version="1.1" xmlns="http://www.w3.org/2000/svg" xmlns:xlink="http://www.w3.org/1999/xlink" xml:space="preserve" xmlns:serif="http://www.serif.com/" style="fill-rule:evenodd;clip-rule:evenodd;stroke-linejoin:round;stroke-miterlimit:2;"><path d="M19.154,25.417c0.69,-0.691 1.078,-1.627 1.078,-2.604c0,-0.977 -0.388,-1.913 -1.078,-2.604c-1.603,-1.603 -3.65,-3.649 -5.252,-5.252c-0.691,-0.691 -1.628,-1.079 -2.604,-1.079c-0.977,0 -1.914,0.388 -2.604,1.079c-1.603,1.603 -3.65,3.649 -5.252,5.252c-0.691,0.691 -1.079,1.627 -1.079,2.604c0,0.977 0.388,1.913 1.079,2.604c1.602,1.603 3.649,3.649 5.252,5.252c0.69,0.691 1.627,1.079 2.604,1.079c0.976,-0 1.913,-0.388 2.604,-1.079c1.602,-1.603 3.649,-3.649 5.252,-5.252Z" style="fill:#d73d52;"/><path d="M28.558,11.791c0.691,-0.691 1.079,-1.627 1.079,-2.604c-0,-0.977 -0.388,-1.913 -1.079,-2.604c-1.602,-1.603 -3.649,-3.649 -5.252,-5.252c-0.69,-0.691 -1.627,-1.079 -2.604,-1.079c-0.976,0 -1.913,0.388 -2.604,1.079c-1.602,1.603 -3.649,3.649 -5.252,5.252c-0.69,0.691 -1.078,1.627 -1.078,2.604c-0,0.977 0.388,1.913 1.078,2.604c1.603,1.603 3.65,3.649 5.252,5.252c0.691,0.691 1.628,1.079 2.604,1.079c0.977,-0 1.914,-0.388 2.604,-1.079c1.603,-1.603 3.65,-3.649 5.252,-5.252Z" style="fill:#08904f;"/></svg>