<?xml version="1.0" encoding="UTF-8" standalone="no"?><!DOCTYPE svg PUBLIC "-//W3C//DTD SVG 1.1//EN" "http://www.w3.org/Graphics/SVG/1.1/DTD/svg11.dtd"><svg width="100%" height="100%" viewBox="0 0 497 213" version="1.1" xmlns="http://www.w3.org/2000/svg" xmlns:xlink="http://www.w3.org/1999/xlink" xml:space="preserve" xmlns:serif="http://www.serif.com/" style="fill-rule:evenodd;clip-rule:evenodd;stroke-linejoin:round;stroke-miterlimit:2;"><g><path d="M108.251,166.255c4.411,-4.411 6.889,-10.394 6.889,-16.632c0,-6.239 -2.478,-12.222 -6.889,-16.633c-10.237,-10.237 -23.312,-23.311 -33.548,-33.548c-4.412,-4.411 -10.394,-6.889 -16.633,-6.889c-6.238,-0 -12.221,2.478 -16.633,6.889c-10.236,10.237 -23.311,23.311 -33.548,33.548c-4.411,4.411 -6.889,10.394 -6.889,16.633c-0,6.238 2.478,12.221 6.889,16.632c10.237,10.237 23.312,23.312 33.548,33.548c4.412,4.412 10.395,6.89 16.633,6.89c6.239,-0 12.221,-2.478 16.633,-6.89c10.236,-10.236 23.311,-23.311 33.548,-33.548Z" style="fill:#d73d52;"/><path d="M168.323,79.219c4.411,-4.411 6.889,-10.394 6.889,-16.633c0,-6.238 -2.478,-12.221 -6.889,-16.632c-10.237,-10.237 -23.311,-23.311 -33.548,-33.548c-4.411,-4.411 -10.394,-6.89 -16.633,-6.89c-6.238,0 -12.221,2.479 -16.632,6.89c-10.237,10.237 -23.312,23.311 -33.548,33.548c-4.412,4.411 -6.89,10.394 -6.89,16.632c0,6.239 2.478,12.222 6.89,16.633c10.236,10.237 23.311,23.311 33.548,33.548c4.411,4.411 10.394,6.889 16.632,6.889c6.239,0 12.222,-2.478 16.633,-6.889c10.237,-10.237 23.311,-23.311 33.548,-33.548Z" style="fill:#08904f;"/><g><path d="M202.396,165.91c7.933,-0 15.6,-4.334 15.6,-13.734c-0,-7.866 -5.334,-11 -10.4,-13.4l-4.8,-2.2c-3.6,-1.666 -5.467,-2.733 -5.467,-5.466c0,-2.8 2.133,-4.467 5.533,-4.467c2.934,-0 5.267,1.267 8.134,3.8c0.533,0.4 1.066,0.267 1.466,-0.267l3.8,-4.6c0.4,-0.533 0.4,-1.066 -0.066,-1.533c-3.667,-3.933 -8.134,-6.133 -13.667,-6.133c-7.933,-0 -14.4,4.666 -14.4,13.133c0,6.933 4.4,10.467 9.333,12.733l5.667,2.667c3.267,1.467 5.6,2.6 5.6,5.733c0,3.334 -2.6,5 -6.533,5c-3.8,0 -6.467,-1.6 -9.4,-4.6c-0.534,-0.466 -1.067,-0.4 -1.534,0.134l-3.866,4.466c-0.467,0.534 -0.467,1 -0.134,1.467c2.734,3.733 7.867,7.267 15.134,7.267Z" style="fill:#060606;fill-rule:nonzero;"/><path d="M240.529,165.91c5.267,-0 9.733,-2.267 12.533,-5.867c0.4,-0.467 0.267,-1 -0.133,-1.4l-4,-3.933c-0.533,-0.534 -1.267,-0.467 -1.733,-0c-1.8,1.8 -3.734,2.733 -6.267,2.733c-5.4,-0 -8.8,-4 -8.8,-8.8c0,-4.8 3.4,-8.533 8.6,-8.533c2.667,-0 4.6,0.933 6.4,2.733c0.467,0.467 1.2,0.533 1.733,-0l4,-3.933c0.4,-0.4 0.534,-0.934 0.134,-1.4c-2.8,-3.6 -7.267,-5.867 -12.667,-5.867c-9.8,-0 -17.067,7.333 -17.067,17c0,9.8 7.334,17.267 17.267,17.267Z" style="fill:#060606;fill-rule:nonzero;"/><path d="M273.662,165.91c9.8,-0 17.067,-7.467 17.067,-17.134c0,-9.666 -7.267,-17.133 -17.067,-17.133c-9.866,-0 -17.133,7.467 -17.133,17.133c0,9.667 7.267,17.134 17.133,17.134Zm-8.266,-17.134c-0,-5.333 3.6,-8.666 8.266,-8.666c4.6,-0 8.2,3.333 8.2,8.666c0,5.334 -3.6,8.667 -8.2,8.667c-4.666,-0 -8.266,-3.333 -8.266,-8.667Z" style="fill:#060606;fill-rule:nonzero;"/><path d="M308.396,165.91c4.866,-0 8,-2.4 9.866,-5.734l0.267,3.867c0.067,0.8 0.4,1.067 1,1.067l6.867,-0c0.6,-0 1.066,-0.4 1.066,-1l0,-30.667c0,-0.6 -0.466,-1 -1.066,-1l-7.134,-0c-0.6,-0 -1,0.4 -1,1l0,16.933c0,4.6 -2.533,7.067 -6.4,7.067c-3.933,-0 -6.066,-2.467 -6.066,-7.067l-0,-16.933c-0,-0.6 -0.4,-1 -1,-1l-7.2,-0c-0.6,-0 -1,0.4 -1,1l-0,19c-0,8.533 4.933,13.467 11.8,13.467Z" style="fill:#060606;fill-rule:nonzero;"/><path d="M348.329,165.51c2.2,-0 5.533,-0.4 5.533,-1.934l0,-4.866c0,-0.667 -0.466,-1 -1.2,-0.934c-0.8,0.067 -1.466,0.067 -2.066,0.067c-1.734,-0 -2.867,-0.933 -2.867,-2.867l0,-15.4l5.133,0c0.6,0 1,-0.4 1,-1l0,-5.133c0,-0.6 -0.4,-1 -1,-1l-5.133,-0l0,-7.667c0,-0.6 -0.4,-1 -1,-1l-7.267,0c-0.6,0 -1,0.4 -1,1l0,7.667l-4.133,-0c-0.6,-0 -1,0.4 -1,1l0,5.133c0,0.6 0.4,1 1,1l4.133,0l0,16.4c0,7.134 4.667,9.534 9.867,9.534Z" style="fill:#060606;fill-rule:nonzero;"/><path d="M364.462,126.643c2.934,-0 5.067,-2.267 5.067,-5.133c0,-2.8 -2.133,-5.067 -5.067,-5.067c-2.933,-0 -5.133,2.267 -5.133,5.067c0,2.866 2.2,5.133 5.133,5.133Zm-4.666,37.467c-0,0.6 0.4,1 1,1l7.266,-0c0.6,-0 1,-0.4 1,-1l0,-30.667c0,-0.6 -0.4,-1 -1,-1l-7.266,-0c-0.6,-0 -1,0.4 -1,1l-0,30.667Z" style="fill:#060606;fill-rule:nonzero;"/><path d="M388.196,165.91c6.533,-0 12.2,-3.4 12.266,-10c0.067,-5 -3.2,-7.867 -7.333,-9.534l-4.6,-1.8c-1.8,-0.666 -3.133,-1.533 -3.133,-3.133c-0,-1.4 1,-2.6 3.133,-2.6c1.933,-0 3.8,0.933 5.933,2.733c0.6,0.467 1.067,0.534 1.534,0l2.933,-3.533c0.333,-0.4 0.467,-0.933 0.067,-1.4c-2.734,-3.267 -6.667,-5 -10.934,-5c-6.066,-0 -11.4,3.6 -11.4,9.867c0,4.533 2.934,7.333 7.134,9l4.133,1.666c2.4,1 3.4,1.734 3.4,3.334c0,1.866 -1.467,2.733 -3.667,2.733c-2.533,-0 -4.8,-1.133 -7.533,-3.2c-0.533,-0.4 -1.133,-0.533 -1.667,0.267l-2.333,3.266c-0.467,0.734 -0.533,1.467 -0.133,1.934c2.6,3.066 6.733,5.4 12.2,5.4Z" style="fill:#060606;fill-rule:nonzero;"/><path d="M407.996,165.11l7.2,-0c0.6,-0 1,-0.4 1,-1l-0,-17.134c-0,-4.466 2,-6.866 5.466,-6.866c3.534,-0 5.2,2.4 5.2,6.866l0,17.134c0,0.6 0.4,1 1.067,1l7.133,-0c0.6,-0 1,-0.4 1,-1l0,-17.134c0,-4.466 2,-6.866 5.467,-6.866c3.6,-0 5.2,2.4 5.2,6.866l0,17.134c0,0.6 0.4,1 1,1l7.2,-0c0.6,-0 1,-0.4 1,-1l0,-19.134c0,-8.533 -4.267,-13.333 -11.267,-13.333c-5.066,-0 -8.266,2.467 -10.066,5.8c-1.8,-3.8 -5.067,-5.8 -9.267,-5.8c-4.467,-0 -7.4,2.267 -9.2,5.333l-0.2,-3.466c0,-0.8 -0.4,-1.067 -1,-1.067l-6.933,-0c-0.6,-0 -1,0.4 -1,1l-0,30.667c-0,0.6 0.4,1 1,1Z" style="fill:#060606;fill-rule:nonzero;"/><path d="M480.062,165.91c4.6,-0 8.8,-1.334 11.6,-4.134c0.6,-0.533 0.667,-1 0.334,-1.466l-2.467,-3.4c-0.333,-0.467 -0.667,-0.534 -1.133,-0.267c-2.667,1.533 -5.067,2 -7.6,2c-5.267,-0 -8.667,-2.267 -9.667,-6.4l19.867,-0c2.866,-0 3.6,-1.8 3.6,-5c-0,-8.267 -5.734,-15.6 -15.667,-15.6c-10.067,-0 -16.8,7.4 -16.8,17c0,9.867 7.2,17.267 17.933,17.267Zm-9.066,-20.134c0.8,-4.333 3.933,-6.533 8,-6.533c3.933,-0 6.866,2.2 7.4,6.533l-15.4,0Z" style="fill:#060606;fill-rule:nonzero;"/></g><g><path d="M186.766,206.276l2.584,0l-0,-25.208l0.208,-0l17.958,25.208l2.667,0l0,-29.583l-2.583,-0l-0,25.208l-0.209,0l-17.958,-25.208l-2.667,-0l0,29.583Z" style="fill:#060606;fill-rule:nonzero;"/><path d="M225.391,206.693c3.375,-0 6.542,-1.375 8.5,-3.792l-1.333,-1.375c-1.583,1.875 -4.125,2.917 -6.875,2.917c-4.542,-0 -8.458,-2.833 -8.875,-8.083l18.625,-0c0.708,-8.167 -4.833,-12.167 -10.333,-12.167c-5.417,-0 -10.709,3.958 -10.709,11.208c0,7.292 5.25,11.292 11,11.292Zm-8.583,-12.375c0.458,-5.167 4.292,-7.875 8.292,-7.875c4.125,-0 7.916,2.792 8.041,7.875l-16.333,-0Z" style="fill:#060606;fill-rule:nonzero;"/><path d="M258.308,184.61l-2.542,-0l0,12.458c0,4.958 -3.125,7.292 -6.833,7.292c-3.75,-0 -6.708,-2.334 -6.708,-7.292l-0,-12.458l-2.542,-0l0,12.75c0,6.458 3.958,9.333 8.583,9.333c4,-0 6.417,-2.083 7.5,-4.208l0,3.791l2.542,0l0,-21.666Z" style="fill:#060606;fill-rule:nonzero;"/><path d="M273.641,206.693c3.75,-0 7.375,-1.833 9.25,-5.333l-2,-1.125c-1.458,2.666 -4.25,4.125 -7.166,4.125c-4.292,-0 -8.667,-3.167 -8.667,-8.875c0,-5.792 4.375,-8.959 8.667,-8.959c2.916,0 5.708,1.459 7.166,4.125l2,-1.125c-1.875,-3.5 -5.5,-5.333 -9.25,-5.333c-5.541,-0 -11.125,4.042 -11.125,11.292c0,7.166 5.584,11.208 11.125,11.208Z" style="fill:#060606;fill-rule:nonzero;"/><path d="M287.1,206.276l2.541,0l0,-12.458c0,-4.958 3.125,-7.292 6.834,-7.292c3.75,0 6.708,2.334 6.708,7.292l0,12.458l2.542,0l-0,-12.75c-0,-6.458 -3.959,-9.333 -8.584,-9.333c-4,-0 -6.416,2.083 -7.5,4.208l0,-11.708l-2.541,-0l-0,29.583Z" style="fill:#060606;fill-rule:nonzero;"/><path d="M320.683,206.693c4.083,-0 7.417,-2.25 8.667,-5.042l0.125,0l-0,4.625l2.541,0l0,-21.666l-2.541,-0l-0,4.625l-0.125,-0c-1.25,-2.792 -4.584,-5.042 -8.667,-5.042c-5.417,-0 -10.75,3.875 -10.75,11.25c0,7.375 5.333,11.25 10.75,11.25Zm-8.208,-11.25c-0,-6 4.291,-8.917 8.541,-8.917c4.25,0 8.542,2.959 8.542,8.917c0,5.958 -4.292,8.917 -8.542,8.917c-4.25,-0 -8.541,-2.917 -8.541,-8.917Zm3.833,-14.917l1.542,1.25l3.25,-4.375l3.25,4.375l1.541,-1.25l-3.833,-5.083l-1.917,-0l-3.833,5.083Z" style="fill:#060606;fill-rule:nonzero;"/><path d="M343.183,206.526c0.833,0 1.75,-0.125 2.5,-0.625l0,-2.083c-0.792,0.333 -1.458,0.417 -1.958,0.417c-1.459,-0 -2.167,-0.75 -2.167,-2.167l0,-15.333l4.208,-0l0,-2.125l-4.208,-0l0,-5.542l-2.542,-0l0,5.542l-2.791,-0l-0,2.125l2.791,-0l0,15.875c0,2.708 1.667,3.916 4.167,3.916Z" style="fill:#060606;fill-rule:nonzero;"/><path d="M359.933,206.693c3.375,-0 6.542,-1.375 8.5,-3.792l-1.333,-1.375c-1.584,1.875 -4.125,2.917 -6.875,2.917c-4.542,-0 -8.459,-2.833 -8.875,-8.083l18.625,-0c0.708,-8.167 -4.834,-12.167 -10.334,-12.167c-5.416,-0 -10.708,3.958 -10.708,11.208c0,7.292 5.25,11.292 11,11.292Zm-8.583,-12.375c0.458,-5.167 4.291,-7.875 8.291,-7.875c4.125,-0 7.917,2.792 8.042,7.875l-16.333,-0Z" style="fill:#060606;fill-rule:nonzero;"/><rect x="374.225" y="176.693" width="2.542" height="29.583" style="fill:#060606;fill-rule:nonzero;"/><path d="M392.141,206.693c5.584,-0 11.167,-4.042 11.167,-11.25c0,-7.208 -5.583,-11.25 -11.167,-11.25c-5.583,-0 -11.166,4.042 -11.166,11.25c-0,7.208 5.583,11.25 11.166,11.25Zm-8.625,-11.25c0,-5.75 4.25,-8.917 8.625,-8.917c4.375,0 8.625,3.167 8.625,8.917c0,5.75 -4.25,8.917 -8.625,8.917c-4.375,-0 -8.625,-3.167 -8.625,-8.917Z" style="fill:#060606;fill-rule:nonzero;"/><path d="M407.516,206.276l2.542,0l0,-21.666l-2.542,-0l0,21.666Zm0,-27.125l2.542,0l0,-2.458l-2.542,-0l0,2.458Z" style="fill:#060606;fill-rule:nonzero;"/><path d="M421.475,206.693c3.583,-0 7.208,-1.875 7.208,-6.083c0,-3.5 -2.333,-4.959 -6.083,-6.5l-1.459,-0.584c-2.541,-1.041 -3.541,-2.291 -3.541,-3.916c-0,-2.167 1.791,-3.25 3.875,-3.25c2.291,-0 3.625,1.208 4.333,3.041l2.042,-0.666c-0.75,-2.75 -3.209,-4.542 -6.459,-4.542c-3.583,-0 -6.291,2.208 -6.291,5.417c-0,2.375 1.458,4.458 5.041,5.916l1.667,0.667c2.833,1.208 4.333,2.208 4.333,4.417c0,2.708 -2.333,3.875 -4.666,3.875c-2.542,-0 -4.542,-1.459 -5.209,-4.167l-2.208,0.625c0.667,3.542 3.458,5.75 7.417,5.75Z" style="fill:#060606;fill-rule:nonzero;"/></g><g opacity="0.95"><path d="M85.565,47.61c2.438,-3.306 11.508,-5.217 17.371,0.587c2.089,2.068 0.971,2.557 -0.689,2.342c-7.629,-0.991 -13.046,3.103 -10.491,8.925c2.246,5.116 9.355,8.127 20.103,2.944c2.392,-1.153 2.946,0.295 2.202,1.09c-2.196,2.35 -12.476,13.685 -21.147,13.439c-7.688,-0.218 -9.319,-6.038 -6.935,-11.356c1.088,-2.428 2.19,-4.761 -0.032,-7.162c-2.127,-2.298 -3.082,-7.149 -0.382,-10.809Z" style="fill:#fff;fill-rule:nonzero;"/><path d="M103.965,28.624c-3.306,2.439 -5.217,11.508 0.587,17.371c2.068,2.089 2.557,0.972 2.342,-0.688c-0.991,-7.63 3.103,-13.047 8.925,-10.492c5.116,2.246 8.127,9.355 2.944,20.103c-1.153,2.392 0.295,2.946 1.09,2.202c2.35,-2.196 13.685,-12.476 13.439,-21.147c-0.218,-7.687 -6.038,-9.318 -11.356,-6.935c-2.428,1.088 -4.761,2.19 -7.162,-0.032c-2.298,-2.127 -7.149,-3.082 -10.809,-0.382Z" style="fill:#fff;fill-rule:nonzero;"/><path d="M150.72,75.074c-2.439,3.306 -11.508,5.217 -17.371,-0.588c-2.089,-2.068 -0.972,-2.557 0.688,-2.341c7.629,0.991 13.047,-3.103 10.491,-8.926c-2.245,-5.116 -10.605,-10.167 -20.102,-2.944c-3.593,2.733 -9.869,11.791 -10.798,20.803c-0.272,2.637 0.162,10.178 2.989,11.709c2.588,1.401 4.928,-2.244 5.097,-5.94c0.049,-1.056 -0.158,-3.065 0.301,-3.429c0.639,-0.506 1.995,0.644 2.09,6.474c0.116,7.057 -3.237,11.16 -6.824,11.16c-4.956,-0 -8.849,-10.981 -5.547,-22.544c3.033,-10.621 6.24,-14.055 10.49,-19.322c2.019,-2.504 12.476,-13.686 21.147,-13.44c7.687,0.219 9.318,6.039 6.935,11.357c-1.089,2.428 -2.19,4.76 0.032,7.162c2.126,2.297 3.082,7.149 0.382,10.809Z" style="fill:#fff;fill-rule:nonzero;"/></g><g opacity="0.94"><path d="M75.677,143.648c3.715,0 6.364,0.679 9.189,3.385c3.175,3.044 8.579,13.387 5.561,18.498c-0.961,1.629 -3.904,1.152 -5.67,0.17c-2.889,-1.607 -5.131,-4.647 -8.596,-5.187c-4.765,-0.743 -9.97,-0.38 -14.497,-2.43c-0.724,-0.328 -1.508,-0.715 -1.946,-1.378c2.235,-1.685 5.619,-0.569 8.04,-0.726c1.729,-0.112 3.406,-0.733 5.138,-0.786c1.462,-0.044 5.877,1.724 7.134,-0.423c1.096,-1.203 1.163,-2.858 -0,-4.037c-1.895,-1.922 -6.064,-2.711 -8.597,-2.201c-2.109,0.424 -3.777,2.202 -5.216,3.598c-0.696,0.676 -1.342,1.403 -2.028,2.09c-0.243,0.244 -0.846,0.915 -1.328,0.792c0,-1.635 2.288,-4.432 3.418,-5.836c3.136,-3.894 6.573,-5.529 9.398,-5.529Z" style="fill:#fff;fill-rule:nonzero;"/><path d="M60.322,158.761c0.844,-0 2.324,0.408 1.572,1.572c-1.234,1.202 -5.025,1.095 -5.393,3.135c-0.178,0.988 1.795,1.14 2.799,1.116c1.445,-0.034 2.853,-0.595 4.299,-0.576c3.269,0.043 6.028,3.705 8.451,5.151c1.17,1.059 2.167,2.34 2.924,3.726c0.616,1.128 0.853,2.433 1.128,3.689c0.361,1.652 -1.136,2.616 -2.595,2.778c-2.422,0.268 -5.377,-2.151 -7.139,-3.181c-0,-0.379 -0.175,-0.417 -0.484,-0.605c-0.433,-0.53 -0.861,-1.036 -1.209,-1.692l-0.242,-0c0,2.005 0.646,3.98 0.605,5.984c-0.069,3.373 -1.895,7.177 -3.836,9.844c-1.525,2.096 -3.815,2.025 -5.474,0.131c-4.42,-3.701 -3.627,-10.316 -3.627,-15.355c-1.588,1.059 -2.883,2.526 -4.498,3.543c-3.077,1.938 -8.996,1.393 -6.518,-3.563c0.858,-1.717 2.186,-3.16 3.157,-4.816c1.744,-1.82 3.746,-2.659 6.166,-3.506c0,0.089 -0.014,0.046 0.121,0.121c0,1.073 -1.683,1.647 -2.176,2.539c-0.81,0.771 -1.506,1.69 -2.005,2.692c-0.734,1.47 -0.597,3.599 1.622,2.918c1.874,-0.576 3.308,-2.276 5.219,-2.709c1.263,1.245 0.295,3.401 0.929,4.822c0.736,1.647 2.601,2.548 4.289,2.672c3.598,0.265 4.46,-2.075 4.652,-5.056c0.022,-0.343 -0.256,-2.013 0.516,-2.268c1.528,-0.505 5.179,2.298 6.176,2.623c0.605,0.198 1.225,-0.562 1.138,-1.088c-0.513,-3.125 -4.224,-9.499 -8.294,-8.197c-1.677,0.537 -8.28,4.634 -10.01,1.173c-5.031,-5.577 4.206,-6.537 7.737,-7.617Z" style="fill:#fff;fill-rule:nonzero;"/><path d="M57.058,107.982c3.784,-0 4.167,1.011 7.133,2.78c13.543,13.301 7.147,37.394 -7.87,46.717c-5.056,3.139 -11.205,1.292 -16.588,3.241c-4.169,1.508 -6.841,6.687 -11.861,5.767c-3.865,-0.709 -2.64,-6.14 -2.007,-8.391c1.856,-6.598 7.063,-12.188 13.602,-14.327c3.662,-1.198 7.076,1.878 9.539,3.977c0.892,0.761 2.732,2.91 2.732,4.244c-0.089,0 -0.046,-0.014 -0.121,0.121c-1.97,-0.872 -3.505,-2.592 -5.513,-3.373c-1.703,-0.662 -5.703,-0.109 -7.269,0.686c-1.536,0.779 -3.953,3.182 -2.415,5.129c1.699,2.152 4.836,0.656 6.916,0.702c2.53,0.055 5.032,0.615 7.562,0.684c2.686,0.073 4.915,-0.408 7.127,-2.014c5.81,-7.257 10.052,-19.337 4.836,-28.171c-3.61,-3.994 -9.967,0.744 -10.627,5.03c-0.821,5.334 -0.539,10.994 1.644,15.983c0.984,2.247 2.37,4.31 3.277,6.59c0.179,0.451 -1.086,0.409 -1.454,0.092c-0.756,-0.65 -1.395,-1.437 -1.969,-2.253c-1.075,-1.531 -1.909,-2.335 -4.082,-6.493c-2.173,-4.157 -2.677,-7.51 -2.94,-11.897c-0.529,-8.814 0.372,-21.409 10.348,-24.824Z" style="fill:#fff;fill-rule:nonzero;"/></g></g></svg>